<svg xmlns="http://www.w3.org/2000/svg" width="183" height="46" viewBox="0 0 183 46" fill="none"><g clip-path="url(#clip0_9601_8010)"><path d="M113.298 13.556C112.621 13.556 112.007 13.4191 111.453 13.1467C110.899 12.8743 110.46 12.4636 110.136 11.9174C109.811 11.3712 109.648 10.6743 109.648 9.82802V4.14062H111.427V9.84047C111.427 10.2996 111.504 10.6854 111.657 10.9979C111.81 11.3104 112.03 11.5427 112.315 11.692C112.601 11.8427 112.941 11.9174 113.336 11.9174C113.732 11.9174 114.084 11.8427 114.371 11.692C114.656 11.5427 114.874 11.3104 115.022 10.9979C115.171 10.6854 115.247 10.2996 115.247 9.84047V4.14062H117.025V9.82664C117.025 10.6729 116.859 11.3698 116.525 11.916C116.192 12.4622 115.741 12.8729 115.175 13.1453C114.609 13.4191 113.982 13.5546 113.298 13.5546" fill="white"></path><path d="M118.501 13.397V6.73202H120.069L120.188 7.82995C120.398 7.44277 120.69 7.13579 121.064 6.9104C121.437 6.685 121.882 6.573 122.401 6.573C122.955 6.573 123.419 6.68915 123.798 6.92284C124.176 7.15653 124.465 7.49393 124.667 7.93504C124.868 8.37615 124.97 8.91405 124.97 9.54875V13.397H123.192V9.70777C123.192 9.18785 123.078 8.78684 122.849 8.50475C122.62 8.22266 122.273 8.08162 121.808 8.08162C121.518 8.08162 121.257 8.15214 121.024 8.29318C120.791 8.43423 120.609 8.63473 120.477 8.8947C120.345 9.15466 120.278 9.47408 120.278 9.85297V13.397H118.5H118.501Z" fill="white"></path><path d="M127.356 5.82063C127.03 5.82063 126.767 5.7266 126.565 5.53578C126.362 5.34633 126.262 5.10573 126.262 4.81534C126.262 4.52496 126.362 4.28435 126.565 4.09491C126.767 3.90547 127.03 3.81006 127.356 3.81006C127.681 3.81006 127.946 3.90409 128.153 4.09491C128.36 4.28435 128.463 4.52496 128.463 4.81534C128.463 5.10573 128.36 5.34633 128.153 5.53578C127.946 5.72522 127.681 5.82063 127.356 5.82063ZM126.46 6.73189H128.239V13.3969H126.46V6.73189Z" fill="white"></path><path d="M131.597 13.397L129.16 6.73193H131.031L132.691 11.7183L134.337 6.73193H136.182L133.758 13.397H131.597Z" fill="white"></path><path d="M139.938 13.5561C139.269 13.5561 138.68 13.4109 138.166 13.1191C137.652 12.8273 137.253 12.4249 136.967 11.9092C136.682 11.3934 136.539 10.8002 136.539 10.1309C136.539 9.46164 136.682 8.82141 136.967 8.29318C137.253 7.76358 137.651 7.34598 138.159 7.03623C138.669 6.72787 139.261 6.573 139.938 6.573C140.614 6.573 141.172 6.71819 141.664 7.00996C142.155 7.30034 142.537 7.69029 142.81 8.1798C143.083 8.6693 143.219 9.23071 143.219 9.86541C143.219 9.95391 143.216 10.0535 143.212 10.1627C143.208 10.2733 143.201 10.3853 143.193 10.5001H137.817V9.40218H141.427C141.4 8.98734 141.249 8.65271 140.972 8.39689C140.695 8.14108 140.355 8.01386 139.951 8.01386C139.644 8.01386 139.364 8.08715 139.115 8.23234C138.864 8.37753 138.665 8.5891 138.516 8.86704C138.366 9.14498 138.291 9.49482 138.291 9.91796V10.301C138.291 10.6619 138.359 10.9772 138.495 11.2468C138.632 11.5165 138.822 11.7253 139.068 11.8746C139.313 12.0239 139.6 12.0986 139.925 12.0986C140.25 12.0986 140.528 12.0309 140.735 11.894C140.942 11.7571 141.102 11.5745 141.216 11.345H143.021C142.906 11.7598 142.702 12.1359 142.407 12.4761C142.113 12.8149 141.757 13.0804 141.34 13.2698C140.922 13.4593 140.455 13.5547 139.938 13.5547" fill="white"></path><path d="M144.465 13.3969V6.73186H146.046L146.205 7.94871C146.371 7.66662 146.575 7.42187 146.818 7.21445C147.059 7.00703 147.336 6.84801 147.648 6.73877C147.96 6.62815 148.305 6.57422 148.683 6.57422V8.46449H148.077C147.814 8.46449 147.57 8.49352 147.345 8.55022C147.122 8.60691 146.925 8.70924 146.758 8.85443C146.592 8.99962 146.464 9.18907 146.377 9.42276C146.289 9.65645 146.245 9.95375 146.245 10.316V13.3969H144.466H144.465Z" fill="white"></path><path d="M152.358 13.5559C151.744 13.5559 151.214 13.4591 150.771 13.2655C150.328 13.0719 149.979 12.8051 149.724 12.4649C149.47 12.1261 149.325 11.7348 149.289 11.295H151.068C151.102 11.4541 151.174 11.6034 151.278 11.7445C151.384 11.8855 151.523 11.9961 151.7 12.0749C151.875 12.1538 152.086 12.1939 152.332 12.1939C152.579 12.1939 152.765 12.1607 152.919 12.0943C153.072 12.0279 153.186 11.938 153.262 11.8233C153.336 11.7085 153.374 11.5896 153.374 11.4665C153.374 11.2812 153.318 11.1402 153.208 11.0434C153.098 10.9466 152.942 10.8622 152.74 10.7917C152.537 10.7212 152.292 10.659 152.003 10.6064C151.686 10.5442 151.377 10.4681 151.074 10.3755C150.771 10.2829 150.501 10.1639 150.264 10.0187C150.027 9.87355 149.839 9.6924 149.698 9.47669C149.558 9.26097 149.487 8.98995 149.487 8.66361C149.487 8.27643 149.594 7.92243 149.803 7.60578C150.014 7.28774 150.324 7.03745 150.731 6.85216C151.139 6.66687 151.62 6.57422 152.174 6.57422C152.981 6.57422 153.619 6.75536 154.084 7.11627C154.55 7.47856 154.827 7.97636 154.914 8.61106H153.241C153.189 8.3995 153.072 8.23633 152.891 8.12156C152.711 8.00678 152.471 7.95009 152.174 7.95009C151.876 7.95009 151.627 8.00817 151.456 8.12156C151.285 8.23633 151.2 8.38152 151.2 8.55852C151.2 8.68158 151.255 8.79221 151.364 8.889C151.474 8.9858 151.63 9.07015 151.832 9.14067C152.033 9.21119 152.28 9.27757 152.569 9.33841C153.079 9.44488 153.526 9.56518 153.912 9.70208C154.299 9.83898 154.602 10.0326 154.821 10.2842C155.04 10.5359 155.151 10.8996 155.151 11.3753C155.151 11.7984 155.036 12.1759 154.808 12.5064C154.579 12.8369 154.257 13.0954 153.839 13.2793C153.422 13.4646 152.929 13.5573 152.357 13.5573" fill="white"></path><path d="M157.379 5.82063C157.054 5.82063 156.791 5.7266 156.588 5.53578C156.386 5.34633 156.285 5.10573 156.285 4.81534C156.285 4.52496 156.386 4.28435 156.588 4.09491C156.789 3.90547 157.054 3.81006 157.379 3.81006C157.704 3.81006 157.97 3.90409 158.177 4.09491C158.383 4.28435 158.487 4.52496 158.487 4.81534C158.487 5.10573 158.383 5.34633 158.177 5.53578C157.97 5.72522 157.704 5.82063 157.379 5.82063ZM156.484 6.73189H158.262V13.3969H156.484V6.73189Z" fill="white"></path><path d="M162.794 13.556C162.188 13.556 161.645 13.4066 161.167 13.1066C160.689 12.8065 160.313 12.393 160.041 11.8634C159.768 11.3338 159.633 10.7392 159.633 10.0783C159.633 9.41729 159.769 8.7978 160.041 8.27372C160.313 7.74965 160.695 7.33481 161.187 7.0306C161.678 6.72639 162.228 6.57428 162.833 6.57428C163.316 6.57428 163.735 6.66278 164.091 6.83839C164.446 7.01539 164.734 7.26567 164.954 7.59201V3.87646H166.733V13.3983H165.151L164.954 12.4719C164.814 12.6751 164.644 12.8577 164.447 13.0208C164.25 13.184 164.018 13.314 163.749 13.4108C163.482 13.5076 163.162 13.556 162.794 13.556ZM163.216 11.9962C163.575 11.9962 163.888 11.9146 164.151 11.7514C164.414 11.5883 164.621 11.3615 164.77 11.0711C164.919 10.7807 164.994 10.4405 164.994 10.0534C164.994 9.66619 164.92 9.33985 164.77 9.04808C164.621 8.7577 164.412 8.5323 164.144 8.37328C163.877 8.21426 163.563 8.13545 163.202 8.13545C162.869 8.13545 162.567 8.21703 162.3 8.3802C162.031 8.54337 161.823 8.77014 161.674 9.06053C161.526 9.35091 161.45 9.6814 161.45 10.052C161.45 10.4226 161.524 10.7766 161.674 11.0642C161.823 11.3504 162.033 11.5772 162.3 11.7445C162.567 11.9118 162.873 11.9962 163.216 11.9962Z" fill="white"></path><path d="M170.499 13.556C169.955 13.556 169.502 13.4661 169.143 13.285C168.783 13.1038 168.512 12.8618 168.332 12.5576C168.152 12.2534 168.062 11.916 168.062 11.5454C168.062 11.1306 168.166 10.7697 168.372 10.4613C168.579 10.153 168.893 9.91235 169.315 9.74088C169.736 9.56941 170.272 9.48368 170.922 9.48368H172.542C172.542 9.14905 172.501 8.87526 172.417 8.66369C172.333 8.45212 172.198 8.2931 172.009 8.18801C171.821 8.08154 171.573 8.02899 171.265 8.02899C170.932 8.02899 170.648 8.09951 170.415 8.24056C170.183 8.3816 170.039 8.607 169.987 8.91536H168.261C168.305 8.43 168.461 8.01655 168.729 7.67223C168.996 7.32792 169.353 7.05966 169.797 6.86607C170.24 6.67248 170.734 6.57568 171.279 6.57568C171.903 6.57568 172.445 6.67939 172.906 6.88681C173.368 7.09423 173.719 7.39844 173.96 7.79945C174.201 8.20046 174.322 8.6872 174.322 9.26105V13.3997H172.833L172.635 12.382C172.538 12.559 172.421 12.7166 172.286 12.8577C172.15 12.9987 171.991 13.1218 171.812 13.2283C171.632 13.3334 171.438 13.4149 171.225 13.473C171.015 13.5297 170.774 13.5588 170.501 13.5588M170.935 12.1801C171.154 12.1801 171.353 12.1386 171.534 12.0543C171.714 11.9699 171.87 11.8538 172.002 11.7044C172.135 11.5551 172.239 11.3864 172.318 11.2025C172.396 11.0172 172.45 10.8153 172.476 10.5941V10.5802H171.119C170.838 10.5802 170.612 10.6134 170.442 10.6798C170.271 10.7462 170.145 10.8402 170.067 10.9646C169.988 11.0877 169.948 11.2288 169.948 11.3878C169.948 11.5551 169.988 11.6989 170.067 11.8178C170.145 11.9367 170.262 12.0266 170.415 12.0889C170.568 12.1511 170.743 12.1815 170.936 12.1815" fill="white"></path><path d="M178.72 13.556C178.114 13.556 177.571 13.4066 177.093 13.1066C176.615 12.8065 176.239 12.393 175.966 11.8634C175.694 11.3338 175.559 10.7392 175.559 10.0783C175.559 9.41729 175.695 8.7978 175.966 8.27372C176.239 7.74965 176.621 7.33481 177.112 7.0306C177.604 6.72639 178.154 6.57428 178.759 6.57428C179.242 6.57428 179.661 6.66278 180.016 6.83839C180.372 7.01539 180.66 7.26567 180.88 7.59201V3.87646H182.659V13.3983H181.077L180.88 12.4719C180.74 12.6751 180.57 12.8577 180.373 13.0208C180.176 13.184 179.943 13.314 179.675 13.4108C179.408 13.5076 179.088 13.556 178.72 13.556ZM179.142 11.9962C179.501 11.9962 179.814 11.9146 180.077 11.7514C180.34 11.5883 180.547 11.3615 180.696 11.0711C180.844 10.7807 180.92 10.4405 180.92 10.0534C180.92 9.66619 180.846 9.33985 180.696 9.04808C180.547 8.7577 180.337 8.5323 180.07 8.37328C179.803 8.21426 179.489 8.13545 179.128 8.13545C178.794 8.13545 178.493 8.21703 178.226 8.3802C177.957 8.54337 177.749 8.77014 177.6 9.06053C177.451 9.35091 177.376 9.6814 177.376 10.052C177.376 10.4226 177.45 10.7766 177.6 11.0642C177.749 11.3504 177.958 11.5772 178.226 11.7445C178.493 11.9118 178.799 11.9962 179.142 11.9962Z" fill="white"></path><path d="M111.875 27.5332V19.7177H109.188V18.2769H116.341V19.7177H113.654V27.5332H111.875Z" fill="white"></path><path d="M119.344 27.6923C118.676 27.6923 118.086 27.5471 117.572 27.2553C117.058 26.965 116.659 26.5612 116.374 26.0454C116.089 25.5296 115.945 24.9364 115.945 24.2671C115.945 23.5979 116.089 22.9576 116.374 22.4294C116.659 21.8998 117.057 21.4822 117.565 21.1725C118.075 20.8641 118.667 20.7092 119.344 20.7092C120.02 20.7092 120.578 20.8544 121.07 21.1462C121.562 21.4366 121.943 21.8265 122.216 22.316C122.489 22.8055 122.625 23.3669 122.625 24.0016C122.625 24.0901 122.622 24.1897 122.618 24.2989C122.614 24.4096 122.607 24.5216 122.599 24.6363H117.224V23.5384H120.833C120.807 23.1236 120.655 22.7889 120.378 22.5331C120.101 22.2773 119.761 22.1501 119.358 22.1501C119.05 22.1501 118.771 22.2234 118.521 22.3686C118.271 22.5138 118.071 22.7253 117.922 23.0033C117.772 23.2812 117.698 23.6311 117.698 24.0542V24.4372C117.698 24.7981 117.765 25.1134 117.901 25.383C118.038 25.6527 118.228 25.8615 118.475 26.0108C118.72 26.1602 119.006 26.2348 119.331 26.2348C119.656 26.2348 119.935 26.1671 120.141 26.0302C120.348 25.8933 120.508 25.7108 120.622 25.4812H122.427C122.312 25.8961 122.109 26.2722 121.814 26.6123C121.519 26.9511 121.164 27.2166 120.746 27.4061C120.329 27.5955 119.862 27.6909 119.344 27.6909" fill="white"></path><path d="M127.093 27.6921C126.424 27.6921 125.832 27.5428 125.314 27.2427C124.796 26.9427 124.391 26.5334 124.102 26.0134C123.813 25.4935 123.668 24.9031 123.668 24.2407C123.668 23.5355 123.813 22.9201 124.102 22.3961C124.391 21.872 124.796 21.4599 125.314 21.1599C125.832 20.8598 126.424 20.7104 127.093 20.7104C127.944 20.7104 128.66 20.9331 129.24 21.3783C129.82 21.8236 130.189 22.4389 130.346 23.223H128.462C128.383 22.9229 128.221 22.6837 127.974 22.5025C127.728 22.3214 127.43 22.2315 127.079 22.2315C126.772 22.2315 126.497 22.3103 126.255 22.4694C126.014 22.6284 125.825 22.8524 125.689 23.1442C125.552 23.4345 125.485 23.7871 125.485 24.202C125.485 24.502 125.525 24.7745 125.603 25.022C125.682 25.2695 125.792 25.4755 125.933 25.6428C126.073 25.8102 126.24 25.9401 126.433 26.0328C126.626 26.1254 126.842 26.1711 127.079 26.1711C127.316 26.1711 127.516 26.131 127.704 26.0522C127.893 25.9733 128.053 25.8586 128.185 25.7078C128.317 25.5585 128.41 25.3815 128.462 25.1782H130.346C130.188 25.936 129.817 26.5444 129.233 27.0035C128.649 27.4626 127.936 27.6908 127.093 27.6908" fill="white"></path><path d="M131.662 27.5333V20.8682H133.229L133.348 21.9662C133.558 21.579 133.85 21.272 134.224 21.0466C134.597 20.8212 135.042 20.7092 135.561 20.7092C136.115 20.7092 136.579 20.8268 136.958 21.0591C137.336 21.2928 137.625 21.6302 137.828 22.0713C138.029 22.5124 138.131 23.0503 138.131 23.685V27.5333H136.352V23.844C136.352 23.3241 136.238 22.9231 136.009 22.641C135.78 22.3589 135.433 22.2178 134.968 22.2178C134.678 22.2178 134.417 22.2884 134.184 22.4294C133.951 22.5705 133.769 22.771 133.637 23.0309C133.505 23.2909 133.439 23.6103 133.439 23.9892V27.5333H131.66H131.662Z" fill="white"></path><path d="M142.73 27.6922C142.089 27.6922 141.516 27.5443 141.01 27.2497C140.505 26.9538 140.105 26.5445 139.812 26.0204C139.517 25.4964 139.371 24.8948 139.371 24.2159C139.371 23.5369 139.518 22.9092 139.812 22.3851C140.105 21.861 140.508 21.4503 141.017 21.1544C141.527 20.8585 142.101 20.7119 142.743 20.7119C143.385 20.7119 143.956 20.8599 144.456 21.1544C144.957 21.4503 145.354 21.8582 145.647 22.3782C145.942 22.8981 146.088 23.5065 146.088 24.2034C146.088 24.9004 145.941 25.4977 145.647 26.0218C145.352 26.5459 144.953 26.9566 144.449 27.2511C143.943 27.547 143.37 27.6936 142.73 27.6936M142.73 26.1449C143.011 26.1449 143.267 26.0716 143.5 25.9264C143.732 25.7812 143.921 25.5627 144.066 25.2723C144.21 24.982 144.283 24.6238 144.283 24.2007C144.283 23.7776 144.213 23.4097 144.073 23.1235C143.932 22.8373 143.748 22.6215 143.519 22.475C143.29 22.3298 143.035 22.2565 142.754 22.2565C142.473 22.2565 142.201 22.3298 141.964 22.475C141.727 22.6202 141.538 22.8359 141.397 23.1235C141.257 23.4097 141.187 23.7693 141.187 24.2007C141.187 24.6321 141.254 24.9806 141.391 25.2723C141.527 25.5627 141.713 25.7812 141.95 25.9264C142.187 26.0716 142.446 26.1449 142.727 26.1449" fill="white"></path><path d="M149.185 18.0112H147.406V27.5331H149.185V18.0112Z" fill="white"></path><path d="M153.859 27.6922C153.218 27.6922 152.645 27.5442 152.139 27.2497C151.634 26.9551 151.234 26.5445 150.941 26.0204C150.646 25.4963 150.5 24.8948 150.5 24.2158C150.5 23.5369 150.647 22.9091 150.941 22.385C151.236 21.861 151.636 21.4503 152.146 21.1544C152.656 20.8584 153.23 20.7119 153.872 20.7119C154.514 20.7119 155.085 20.8598 155.585 21.1544C156.085 21.4503 156.483 21.8582 156.776 22.3781C157.071 22.898 157.217 23.5065 157.217 24.2034C157.217 24.9003 157.07 25.4977 156.776 26.0218C156.481 26.5458 156.082 26.9565 155.578 27.2511C155.072 27.547 154.499 27.6936 153.859 27.6936M153.859 26.1448C154.14 26.1448 154.397 26.0715 154.629 25.9264C154.861 25.7812 155.05 25.5627 155.195 25.2723C155.339 24.9819 155.412 24.6238 155.412 24.2006C155.412 23.7775 155.342 23.4097 155.202 23.1234C155.061 22.8372 154.877 22.6215 154.648 22.4749C154.419 22.3297 154.164 22.2564 153.883 22.2564C153.602 22.2564 153.33 22.3297 153.093 22.4749C152.856 22.6201 152.667 22.8358 152.526 23.1234C152.386 23.4097 152.316 23.7692 152.316 24.2006C152.316 24.6321 152.383 24.9805 152.52 25.2723C152.656 25.5627 152.842 25.7812 153.079 25.9264C153.316 26.0715 153.575 26.1448 153.856 26.1448M152.488 20.2998L152.329 19.123L155.214 17.4568L155.411 18.8188L152.486 20.2998H152.488Z" fill="white"></path><path d="M160.973 30.6017C160.341 30.6017 159.787 30.5242 159.313 30.3708C158.839 30.2159 158.472 29.9822 158.213 29.6697C157.954 29.3572 157.824 28.9714 157.824 28.5123C157.824 28.1956 157.903 27.8997 158.061 27.6259C158.22 27.3521 158.452 27.1032 158.76 26.8792C159.067 26.6538 159.444 26.463 159.892 26.304L160.564 27.1903C160.161 27.3231 159.87 27.4904 159.695 27.6923C159.519 27.8942 159.432 28.1057 159.432 28.327C159.432 28.5289 159.498 28.7017 159.629 28.8428C159.761 28.9838 159.946 29.0875 160.183 29.1539C160.42 29.2203 160.679 29.2535 160.96 29.2535C161.241 29.2535 161.487 29.2175 161.697 29.147C161.907 29.0765 162.073 28.9755 162.191 28.8428C162.31 28.71 162.369 28.5469 162.369 28.3533C162.369 28.1058 162.283 27.9108 162.113 27.7656C161.942 27.6204 161.606 27.5291 161.104 27.4946C160.665 27.46 160.269 27.4061 159.918 27.3355C159.567 27.265 159.261 27.1862 159.002 27.0977C158.743 27.0092 158.521 26.9083 158.337 26.7935C158.152 26.6787 158.003 26.5639 157.889 26.4492V26.145L159.298 24.6239L160.577 25.0332L158.917 26.6732L159.43 25.7868C159.519 25.849 159.611 25.9057 159.707 25.9583C159.804 26.0108 159.922 26.0551 160.063 26.091C160.203 26.127 160.385 26.1602 160.61 26.1906C160.834 26.221 161.121 26.2542 161.472 26.2902C162.06 26.3344 162.541 26.4409 162.914 26.6082C163.288 26.7755 163.559 27.0009 163.731 27.283C163.902 27.5651 163.987 27.9094 163.987 28.3146C163.987 28.7197 163.88 29.082 163.665 29.4249C163.45 29.7692 163.121 30.0513 162.677 30.2712C162.234 30.4911 161.665 30.6017 160.971 30.6017M160.986 25.5628C160.432 25.5628 159.954 25.4549 159.549 25.2392C159.144 25.0235 158.835 24.7331 158.62 24.3667C158.406 24.0003 158.298 23.5937 158.298 23.1429C158.298 22.6921 158.406 22.2856 158.62 21.9192C158.835 21.5541 159.143 21.261 159.542 21.0397C159.942 20.8199 160.422 20.7092 160.984 20.7092C161.546 20.7092 162.013 20.8199 162.414 21.0397C162.814 21.2596 163.118 21.5527 163.33 21.9192C163.541 22.2856 163.646 22.6935 163.646 23.1429C163.646 23.5923 163.541 24.0003 163.33 24.3667C163.12 24.7331 162.814 25.0235 162.414 25.2392C162.015 25.4549 161.538 25.5628 160.984 25.5628M160.986 24.2008C161.329 24.2008 161.603 24.1123 161.81 23.9367C162.016 23.761 162.119 23.4955 162.119 23.1429C162.119 22.7903 162.016 22.5387 161.81 22.363C161.603 22.186 161.329 22.0989 160.986 22.0989C160.643 22.0989 160.364 22.1874 160.15 22.363C159.935 22.54 159.827 22.8 159.827 23.1429C159.827 23.4859 159.933 23.7597 160.144 23.9367C160.355 24.1136 160.636 24.2008 160.987 24.2008M162.08 22.1252L161.79 20.8696H164.53V21.9275L162.08 22.1252Z" fill="white"></path><path d="M166.691 19.9556C166.366 19.9556 166.103 19.8616 165.901 19.6708C165.698 19.4813 165.598 19.2407 165.598 18.9504C165.598 18.66 165.698 18.4194 165.901 18.2299C166.102 18.0405 166.366 17.9451 166.691 17.9451C167.017 17.9451 167.282 18.0405 167.489 18.2299C167.696 18.4194 167.799 18.66 167.799 18.9504C167.799 19.2407 167.696 19.4813 167.489 19.6708C167.282 19.8602 167.017 19.9556 166.691 19.9556ZM165.796 20.8683H167.574V27.5333H165.796V20.8683Z" fill="white"></path><path d="M172.37 27.6921C171.702 27.6921 171.109 27.5428 170.591 27.2427C170.074 26.9427 169.669 26.5334 169.379 26.0134C169.09 25.4935 168.945 24.9031 168.945 24.2407C168.945 23.5355 169.09 22.9201 169.379 22.3961C169.669 21.872 170.074 21.4599 170.591 21.1599C171.109 20.8598 171.702 20.7104 172.37 20.7104C173.221 20.7104 173.938 20.9331 174.518 21.3783C175.098 21.8236 175.467 22.4389 175.624 23.223H173.739C173.661 22.9229 173.498 22.6837 173.252 22.5025C173.005 22.3214 172.707 22.2315 172.356 22.2315C172.049 22.2315 171.775 22.3103 171.532 22.4694C171.291 22.6284 171.103 22.8524 170.966 23.1442C170.83 23.4345 170.762 23.7871 170.762 24.202C170.762 24.502 170.802 24.7745 170.881 25.022C170.959 25.2695 171.07 25.4755 171.21 25.6428C171.351 25.8102 171.517 25.9401 171.71 26.0328C171.903 26.1254 172.119 26.1711 172.356 26.1711C172.593 26.1711 172.793 26.131 172.982 26.0522C173.17 25.9733 173.33 25.8586 173.462 25.7078C173.595 25.5585 173.687 25.3815 173.739 25.1782H175.624C175.465 25.936 175.095 26.5444 174.511 27.0035C173.927 27.4626 173.213 27.6908 172.37 27.6908" fill="white"></path><path d="M179.179 27.6922C178.635 27.6922 178.182 27.6023 177.822 27.4212C177.463 27.24 177.193 26.9981 177.012 26.6938C176.832 26.3896 176.742 26.0522 176.742 25.6816C176.742 25.2668 176.846 24.9059 177.052 24.5975C177.259 24.2892 177.573 24.0486 177.994 23.8771C178.416 23.7056 178.952 23.6199 179.602 23.6199H181.222C181.222 23.2853 181.181 23.0115 181.097 22.7999C181.013 22.5884 180.878 22.4293 180.689 22.3242C180.5 22.2178 180.252 22.1652 179.945 22.1652C179.612 22.1652 179.328 22.2357 179.095 22.3768C178.862 22.5178 178.719 22.7432 178.667 23.0516H176.941C176.985 22.5662 177.14 22.1528 177.409 21.8085C177.676 21.4642 178.033 21.1959 178.477 21.0023C178.92 20.8087 179.413 20.7119 179.959 20.7119C180.583 20.7119 181.124 20.8156 181.586 21.023C182.047 21.2305 182.398 21.5347 182.64 21.9357C182.881 22.3367 183.002 22.8234 183.002 23.3973V27.536H181.513L181.316 26.5182C181.219 26.6952 181.102 26.8529 180.967 26.9939C180.831 27.135 180.672 27.258 180.493 27.3645C180.313 27.4696 180.119 27.5512 179.906 27.6093C179.696 27.6659 179.455 27.695 179.182 27.695M179.614 26.3163C179.833 26.3163 180.033 26.2749 180.214 26.1905C180.394 26.1062 180.55 25.99 180.682 25.8407C180.814 25.6913 180.919 25.5226 180.997 25.3387C181.076 25.1534 181.13 24.9515 181.156 24.7303V24.7165H179.799C179.518 24.7165 179.292 24.7497 179.121 24.816C178.95 24.8824 178.825 24.9764 178.747 25.1009C178.668 25.2239 178.628 25.365 178.628 25.524C178.628 25.6913 178.668 25.8351 178.747 25.9541C178.825 26.073 178.942 26.1629 179.095 26.2251C179.248 26.2873 179.423 26.3177 179.616 26.3177" fill="white"></path><path d="M112.638 41.8284C112.032 41.8284 111.489 41.6791 111.011 41.379C110.532 41.079 110.157 40.6655 109.884 40.1359C109.612 39.6063 109.477 39.0117 109.477 38.3507C109.477 37.6897 109.613 37.0703 109.884 36.5462C110.157 36.0221 110.539 35.6073 111.03 35.3031C111.522 34.9988 112.072 34.8467 112.677 34.8467C113.16 34.8467 113.579 34.9352 113.934 35.1109C114.29 35.2878 114.578 35.5381 114.798 35.8645V32.1489H116.577V41.6708H114.995L114.798 40.7443C114.658 40.9476 114.488 41.1301 114.291 41.2933C114.094 41.4565 113.861 41.5864 113.593 41.6832C113.325 41.78 113.006 41.8284 112.638 41.8284ZM113.06 40.2673C113.419 40.2673 113.732 40.1857 113.995 40.0225C114.258 39.8593 114.465 39.6326 114.614 39.3422C114.762 39.0518 114.838 38.7116 114.838 38.3244C114.838 37.9373 114.764 37.6095 114.614 37.3192C114.465 37.0288 114.255 36.8034 113.988 36.6444C113.721 36.4853 113.407 36.4065 113.046 36.4065C112.712 36.4065 112.411 36.4881 112.144 36.6513C111.875 36.8144 111.667 37.0412 111.518 37.3316C111.369 37.6234 111.294 37.9525 111.294 38.3231C111.294 38.6937 111.368 39.0476 111.518 39.3353C111.667 39.6215 111.876 39.8483 112.144 40.0156C112.411 40.1829 112.717 40.2673 113.06 40.2673Z" fill="white"></path><path d="M121.293 41.8285C120.625 41.8285 120.035 41.6833 119.521 41.3916C119.008 41.1012 118.608 40.6974 118.323 40.1816C118.038 39.6659 117.895 39.0726 117.895 38.4034C117.895 37.7341 118.038 37.0939 118.323 36.5656C118.608 36.036 119.006 35.6184 119.515 35.3087C120.024 35.0003 120.617 34.8455 121.293 34.8455C121.969 34.8455 122.527 34.9907 123.019 35.2824C123.511 35.5728 123.892 35.9627 124.165 36.4523C124.438 36.9418 124.574 37.5032 124.574 38.1379C124.574 38.2264 124.572 38.3259 124.567 38.4352C124.563 38.5458 124.556 38.6578 124.548 38.7726H119.173V37.6746H122.782C122.756 37.2598 122.604 36.9252 122.328 36.6694C122.051 36.4135 121.71 36.2863 121.307 36.2863C121 36.2863 120.72 36.3596 120.471 36.5048C120.221 36.65 120.02 36.8616 119.871 37.1395C119.721 37.4174 119.647 37.7673 119.647 38.1904V38.5734C119.647 38.9344 119.714 39.2496 119.851 39.5193C119.987 39.7889 120.177 39.9977 120.424 40.1471C120.669 40.2964 120.955 40.3711 121.281 40.3711C121.606 40.3711 121.884 40.3033 122.091 40.1664C122.297 40.0295 122.457 39.847 122.571 39.6175H124.376C124.262 40.0323 124.058 40.4084 123.763 40.7486C123.468 41.0874 123.113 41.3528 122.695 41.5423C122.278 41.7317 121.811 41.8271 121.293 41.8271" fill="white"></path><path d="M128.75 41.6695V32.4131H132.53C133.171 32.4131 133.712 32.514 134.15 32.7173C134.59 32.9206 134.92 33.1999 135.145 33.5566C135.369 33.9134 135.481 34.3255 135.481 34.7929C135.481 35.2602 135.382 35.653 135.185 35.9696C134.988 36.2877 134.722 36.531 134.387 36.7039C134.054 36.8753 133.693 36.9749 133.307 37.0012L133.504 36.856C133.926 36.874 134.302 36.986 134.631 37.1934C134.96 37.4008 135.219 37.676 135.408 38.0203C135.597 38.3646 135.692 38.7393 135.692 39.1445C135.692 39.6381 135.576 40.0751 135.343 40.454C135.11 40.8329 134.767 41.1302 134.315 41.3473C133.864 41.563 133.313 41.6708 132.662 41.6708H128.75V41.6695ZM130.528 36.2738H132.241C132.706 36.2738 133.062 36.1673 133.308 35.9558C133.554 35.7442 133.678 35.4442 133.678 35.057C133.678 34.6698 133.555 34.3808 133.308 34.1651C133.062 33.9494 132.702 33.8415 132.228 33.8415H130.528V36.2752V36.2738ZM130.528 40.2148H132.385C132.859 40.2148 133.228 40.1041 133.492 39.8843C133.755 39.6644 133.887 39.3464 133.887 38.9315C133.887 38.5167 133.751 38.1931 133.478 37.9594C133.205 37.7257 132.833 37.6096 132.358 37.6096H130.527V40.2148H130.528Z" fill="white"></path><path d="M140.054 41.8284C139.413 41.8284 138.84 41.6805 138.335 41.386C137.829 41.09 137.43 40.6807 137.136 40.1567C136.841 39.6326 136.695 39.0311 136.695 38.3521C136.695 37.6732 136.843 37.0454 137.136 36.5199C137.43 35.9959 137.832 35.5852 138.342 35.2906C138.851 34.9947 139.426 34.8481 140.068 34.8481C140.71 34.8481 141.28 34.9961 141.78 35.2906C142.281 35.5866 142.678 35.9945 142.972 36.5144C143.266 37.0343 143.412 37.6428 143.412 38.3397C143.412 39.0366 143.265 39.634 142.972 40.158C142.677 40.6821 142.277 41.0928 141.773 41.3873C141.267 41.6833 140.694 41.8298 140.054 41.8298M140.054 40.2811C140.335 40.2811 140.591 40.2078 140.824 40.0626C141.057 39.9174 141.245 39.699 141.39 39.4086C141.535 39.1182 141.608 38.76 141.608 38.3369C141.608 37.9138 141.537 37.546 141.397 37.2597C141.256 36.9735 141.072 36.7578 140.843 36.6112C140.614 36.466 140.36 36.3927 140.079 36.3927C139.798 36.3927 139.525 36.466 139.288 36.6112C139.051 36.7564 138.862 36.9735 138.722 37.2597C138.581 37.546 138.511 37.9055 138.511 38.3369C138.511 38.7683 138.578 39.1168 138.715 39.4086C138.851 39.699 139.037 39.9174 139.274 40.0626C139.511 40.2078 139.77 40.2811 140.051 40.2811" fill="white"></path><path d="M146.509 32.1475H144.73V41.6693H146.509V32.1475Z" fill="white"></path><path d="M147.549 34.436L147.391 33.2593L150.275 31.593L150.474 32.9551L147.549 34.436ZM148.037 35.0044H149.815V41.6694H148.037V35.0044Z" fill="white"></path><path d="M153.121 41.6694L150.684 35.0044H152.554L154.214 39.9893L155.86 35.0044H157.705L155.282 41.6694H153.121Z" fill="white"></path><path d="M160.421 41.8284C159.877 41.8284 159.424 41.7386 159.064 41.5574C158.705 41.3763 158.435 41.1343 158.254 40.8301C158.074 40.5259 157.984 40.1885 157.984 39.8179C157.984 39.403 158.088 39.0421 158.294 38.7338C158.501 38.4254 158.815 38.1848 159.237 38.0133C159.658 37.8419 160.194 37.7561 160.844 37.7561H162.464C162.464 37.4215 162.423 37.1477 162.339 36.9362C162.255 36.7246 162.12 36.5656 161.931 36.4605C161.742 36.354 161.494 36.3015 161.187 36.3015C160.854 36.3015 160.57 36.372 160.337 36.513C160.104 36.6541 159.961 36.8795 159.909 37.1878H158.183C158.227 36.7025 158.383 36.289 158.651 35.9447C158.918 35.6004 159.275 35.3321 159.719 35.1385C160.162 34.9449 160.655 34.8481 161.201 34.8481C161.825 34.8481 162.366 34.9519 162.828 35.1593C163.289 35.3667 163.641 35.6709 163.882 36.0719C164.123 36.4729 164.244 36.9597 164.244 37.5335V41.6722H162.755L162.557 40.6545C162.46 40.8315 162.343 40.9891 162.208 41.1301C162.072 41.2712 161.913 41.3943 161.734 41.5007C161.554 41.6058 161.359 41.6874 161.147 41.7455C160.937 41.8022 160.695 41.8312 160.423 41.8312M160.857 40.4526C161.076 40.4526 161.275 40.4111 161.456 40.3267C161.636 40.2424 161.792 40.1262 161.924 39.9769C162.056 39.8276 162.161 39.6589 162.24 39.4749C162.318 39.2897 162.372 39.0878 162.398 38.8665V38.8527H161.041C160.76 38.8527 160.534 38.8859 160.363 38.9523C160.193 39.0186 160.067 39.1127 159.989 39.2371C159.91 39.3602 159.87 39.5012 159.87 39.6602C159.87 39.8276 159.91 39.9714 159.989 40.0903C160.067 40.2092 160.184 40.2991 160.337 40.3613C160.49 40.4235 160.665 40.454 160.858 40.454" fill="white"></path><path d="M165.691 41.6693V35.0043H167.273L167.431 36.2212C167.598 35.9391 167.802 35.6943 168.044 35.4869C168.285 35.2795 168.562 35.1205 168.875 35.0112C169.186 34.9006 169.532 34.8467 169.91 34.8467V36.7369H169.303C169.04 36.7369 168.796 36.766 168.572 36.8227C168.349 36.8808 168.152 36.9817 167.985 37.1269C167.818 37.2721 167.69 37.4615 167.603 37.6952C167.515 37.9289 167.471 38.2262 167.471 38.5885V41.6693H165.693H165.691Z" fill="white"></path><path d="M90.2485 22.7944C90.1727 22.8068 90.1727 22.9133 90.2485 22.9258C92.7074 23.3212 94.5906 25.4646 94.5906 28.049V41.8616C94.5906 43.7768 93.0477 45.3186 91.1467 45.3186H60.6653V25.1175H80.4471V20.6704H56.1592V45.3186H38.5595V20.6704H33.9088V41.8616C33.9088 43.7713 32.3673 45.3186 30.4649 45.3186H3.44392C1.54287 45.3186 0 43.7754 0 41.8616V3.77557C0 1.86732 1.54287 0.318604 3.44392 0.318604H14.6504V30.4938H19.3025V0.318604H91.1453C93.0477 0.318604 94.5892 1.86732 94.5892 3.77557V17.6753C94.5892 20.2598 92.7074 22.3989 90.2471 22.793" fill="white"></path></g><defs><clipPath id="clip0_9601_8010"><rect width="183" height="45" fill="white" transform="translate(0 0.318604)"></rect></clipPath></defs></svg>